<svg width="18" height="18" viewBox="0 0 18 18" fill="none" xmlns="http://www.w3.org/2000/svg">
<g id="Group">
<path id="Vector" d="M9 9C10.1603 9 11.2731 8.53906 12.0936 7.71859C12.9141 6.89812 13.375 5.78532 13.375 4.625C13.375 3.46468 12.9141 2.35188 12.0936 1.53141C11.2731 0.710936 10.1603 0.25 9 0.25C7.83968 0.25 6.72688 0.710936 5.90641 1.53141C5.08594 2.35188 4.625 3.46468 4.625 4.625C4.625 5.78532 5.08594 6.89812 5.90641 7.71859C6.72688 8.53906 7.83968 9 9 9ZM11.9167 4.625C11.9167 5.39855 11.6094 6.14041 11.0624 6.6874C10.5154 7.23438 9.77355 7.54167 9 7.54167C8.22645 7.54167 7.48459 7.23438 6.93761 6.6874C6.39062 6.14041 6.08333 5.39855 6.08333 4.625C6.08333 3.85145 6.39062 3.10959 6.93761 2.56261C7.48459 2.01562 8.22645 1.70833 9 1.70833C9.77355 1.70833 10.5154 2.01562 11.0624 2.56261C11.6094 3.10959 11.9167 3.85145 11.9167 4.625ZM17.75 16.2917C17.75 17.75 16.2917 17.75 16.2917 17.75H1.70833C1.70833 17.75 0.25 17.75 0.25 16.2917C0.25 14.8333 1.70833 10.4583 9 10.4583C16.2917 10.4583 17.75 14.8333 17.75 16.2917ZM16.2917 16.2858C16.2902 15.9271 16.0671 14.8479 15.0783 13.8592C14.1275 12.9083 12.3381 11.9167 9 11.9167C5.66042 11.9167 3.8725 12.9083 2.92167 13.8592C1.93292 14.8479 1.71125 15.9271 1.70833 16.2858H16.2917Z" fill="black"/>
</g>
</svg>
