<svg width="246" height="38" viewBox="0 0 246 38" fill="none" xmlns="http://www.w3.org/2000/svg">
<g id="Vector">
<path d="M10.4926 37.6716C8.62116 37.6716 6.90563 37.2037 5.34607 36.268C3.82116 35.2976 2.59083 34.0326 1.65509 32.473C0.754008 30.8788 0.303467 29.1286 0.303467 27.2225V24.8311C0.303467 24.6579 0.390109 24.5712 0.563395 24.5712H6.38578C6.52441 24.5712 6.59372 24.6579 6.59372 24.8311V27.2225C6.59372 28.3662 6.97495 29.3539 7.7374 30.1857C8.49986 30.9828 9.41827 31.3813 10.4926 31.3813C11.567 31.3813 12.4854 30.9654 13.2479 30.1337C14.0103 29.3019 14.3916 28.3315 14.3916 27.2225C14.3916 25.9402 13.5598 24.8311 11.8962 23.8954C11.3417 23.5835 10.4753 23.0983 9.29697 22.4398C8.11863 21.7813 7.00961 21.1575 5.96989 20.5683C4.06376 19.4593 2.64282 18.073 1.70708 16.4095C0.805994 14.7113 0.355452 12.8051 0.355452 10.6911C0.355452 8.75027 0.823322 7.01742 1.75906 5.49251C2.6948 3.93294 3.92513 2.70262 5.45004 1.80154C7.0096 0.900453 8.69047 0.449911 10.4926 0.449911C12.3295 0.449911 14.0103 0.917782 15.5352 1.85352C17.0948 2.7546 18.3251 3.98493 19.2262 5.5445C20.162 7.06941 20.6298 8.78493 20.6298 10.6911V14.9539C20.6298 15.0925 20.5605 15.1618 20.4219 15.1618H14.5995C14.4609 15.1618 14.3916 15.0925 14.3916 14.9539L14.3396 10.6911C14.3396 9.47807 13.9583 8.49034 13.1959 7.72789C12.4334 6.96544 11.5323 6.58421 10.4926 6.58421C9.41827 6.58421 8.49986 7.00009 7.7374 7.83186C6.97495 8.62897 6.59372 9.58204 6.59372 10.6911C6.59372 11.8348 6.83632 12.7878 7.32152 13.5503C7.80672 14.3127 8.69047 15.0405 9.97278 15.7337C10.1461 15.8376 10.4753 16.0283 10.9605 16.3055C11.4804 16.5481 12.0349 16.8427 12.624 17.1893C13.2132 17.5012 13.7331 17.7784 14.1836 18.021C14.6688 18.2636 14.9634 18.4196 15.0674 18.4889C16.8002 19.4593 18.1692 20.655 19.1742 22.0759C20.1793 23.4622 20.6818 25.1777 20.6818 27.2225C20.6818 29.1979 20.2139 30.9828 19.2782 32.577C18.3771 34.1366 17.1468 35.3842 15.5872 36.3199C14.0623 37.221 12.3641 37.6716 10.4926 37.6716Z" fill="white"/>
<path d="M24.5052 37.1517C24.3666 37.1517 24.2972 37.0651 24.2972 36.8918L24.3492 1.17771C24.3492 1.03908 24.4359 0.969766 24.6092 0.969766H30.3796C30.5528 0.969766 30.6395 1.03908 30.6395 1.17771L30.5875 15.3178H38.3853V1.17771C38.3853 1.03908 38.4546 0.969766 38.5933 0.969766H44.3637C44.537 0.969766 44.6236 1.03908 44.6236 1.17771L44.7276 36.8918C44.7276 37.0651 44.6409 37.1517 44.4676 37.1517H38.6453C38.472 37.1517 38.3853 37.0651 38.3853 36.8918V21.608H30.5875V36.8918C30.5875 37.0651 30.5182 37.1517 30.3796 37.1517H24.5052Z" fill="white"/>
<path d="M49.23 37.1517C49.0567 37.1517 48.9701 37.0651 48.9701 36.8918L49.0221 1.17771C49.0221 1.03908 49.0914 0.969766 49.23 0.969766H55.0524C55.191 0.969766 55.2603 1.03908 55.2603 1.17771L55.3123 36.8918C55.3123 37.0651 55.243 37.1517 55.1044 37.1517H49.23Z" fill="white"/>
<path d="M60.3529 37.1517C60.0756 37.1517 59.937 37.0304 59.937 36.7878L59.885 1.38565C59.885 1.10839 60.0236 0.969766 60.3009 0.969766H64.9796L73.7652 21.4521L73.5052 1.38565C73.5052 1.10839 73.6612 0.969766 73.9731 0.969766H79.1197C79.3276 0.969766 79.4316 1.10839 79.4316 1.38565L79.4836 36.8398C79.4836 37.0477 79.3969 37.1517 79.2236 37.1517H74.6489L65.6554 18.021L66.0193 36.7358C66.0193 37.0131 65.8634 37.1517 65.5514 37.1517H60.3529Z" fill="white"/>
<path d="M84.2074 37.1517C84.0687 37.1517 83.9994 37.0651 83.9994 36.8918L84.0514 1.17771C84.0514 1.03908 84.1207 0.969766 84.2593 0.969766H100.947C101.085 0.969766 101.155 1.05641 101.155 1.22969V7.05208C101.155 7.1907 101.085 7.26002 100.947 7.26002H90.2897V15.3698H100.947C101.085 15.3698 101.155 15.4391 101.155 15.5777L101.207 21.4521C101.207 21.5907 101.137 21.66 100.999 21.66H90.2897V30.7575H100.999C101.137 30.7575 101.207 30.8441 101.207 31.0174V36.9438C101.207 37.0824 101.137 37.1517 100.999 37.1517H84.2074Z" fill="white"/>
<path d="M110.147 19.8232H144.804V24.1553H110.147V19.8232Z" fill="white"/>
<path d="M180.53 20.4981C182.183 21.4922 183.984 21.9892 185.931 21.9892C187.952 21.9892 189.771 21.4922 191.388 20.4981C193.041 19.5041 194.346 18.1603 195.301 16.4667C196.293 14.7731 196.789 12.8954 196.789 10.8337L196.684 0.549516C196.684 0.402247 196.611 0.328613 196.464 0.328613H190.291C190.144 0.328613 190.07 0.402247 190.07 0.549516L190.065 10.8337C190.065 12.0855 189.661 13.1532 188.852 14.0368C188.081 14.8836 187.107 15.307 185.931 15.307C184.792 15.307 183.818 14.8836 183.01 14.0368C182.238 13.1532 181.853 12.0855 181.853 10.8337L181.858 0.549516C181.858 0.402247 181.785 0.328613 181.638 0.328613H175.465C175.318 0.328613 175.244 0.402247 175.244 0.549516L175.128 10.8337C175.128 12.8586 175.606 14.7179 176.562 16.4115C177.554 18.105 178.876 19.4673 180.53 20.4981Z" fill="white"/>
<path d="M181.819 37.1517H175.154L175.205 24.3762C175.205 24.2289 175.279 24.1553 175.426 24.1553H181.599C181.746 24.1553 181.819 24.2289 181.819 24.3762V37.1517Z" fill="white"/>
<path d="M196.646 24.3762L196.697 37.1517H190.032V24.3762C190.032 24.2289 190.105 24.1553 190.252 24.1553H196.425C196.572 24.1553 196.646 24.2289 196.646 24.3762Z" fill="white"/>
<path d="M151.351 36.8918L157.798 1.17771C157.832 1.03908 157.919 0.969766 158.058 0.969766H165.595C165.734 0.969766 165.821 1.03908 165.855 1.17771L172.042 36.8918C172.076 37.0651 172.007 37.1517 171.834 37.1517H166.063C165.925 37.1517 165.838 37.0651 165.803 36.8918L165.232 33.0968H158.161L157.59 36.8918C157.555 37.0651 157.468 37.1517 157.33 37.1517H151.559C151.421 37.1517 151.351 37.0651 151.351 36.8918ZM159.201 27.5344H164.192L162.06 12.9264L161.749 11.003L161.541 12.9264L159.201 27.5344Z" fill="white"/>
<path d="M224.998 36.8918L231.444 1.17771C231.478 1.03908 231.565 0.969766 231.704 0.969766H239.242C239.38 0.969766 239.467 1.03908 239.502 1.17771L245.688 36.8918C245.723 37.0651 245.653 37.1517 245.48 37.1517H239.71C239.571 37.1517 239.484 37.0651 239.45 36.8918L238.878 33.0968H231.808L231.236 36.8918C231.201 37.0651 231.115 37.1517 230.976 37.1517H225.206C225.067 37.1517 224.998 37.0651 224.998 36.8918ZM232.847 27.5344H237.838L235.707 12.9264L235.395 11.003L235.187 12.9264L232.847 27.5344Z" fill="white"/>
<path d="M201.699 37.1517C201.561 37.1517 201.492 37.0651 201.492 36.8918L201.595 1.17771C201.595 1.03908 201.665 0.969766 201.803 0.969766H212.305C214.176 0.969766 215.892 1.43764 217.451 2.37338C219.045 3.27446 220.31 4.50479 221.246 6.06435C222.182 7.58926 222.65 9.32211 222.65 11.2629C222.65 12.5452 222.459 13.7062 222.078 14.7459C221.697 15.751 221.246 16.6174 220.726 17.3452C220.206 18.0384 219.738 18.5582 219.323 18.9048C221.194 20.9842 222.13 23.4275 222.13 26.2348L222.182 36.8918C222.182 37.0651 222.095 37.1517 221.922 37.1517H216.047C215.909 37.1517 215.84 37.0997 215.84 36.9958V26.2348C215.84 24.9871 215.389 23.9127 214.488 23.0116C213.621 22.0759 212.547 21.608 211.265 21.608H207.834L207.782 36.8918C207.782 37.0651 207.712 37.1517 207.574 37.1517H201.699ZM207.834 15.3698H212.305C213.379 15.3698 214.332 14.9712 215.164 14.1741C215.995 13.377 216.411 12.4066 216.411 11.2629C216.411 10.1539 215.995 9.20081 215.164 8.4037C214.367 7.60659 213.414 7.20803 212.305 7.20803H207.834V15.3698Z" fill="white"/>
</g>
</svg>
